<?xml version="1.0" encoding="utf-8"?>
<!-- Generator: Adobe Illustrator 16.0.0, SVG Export Plug-In . SVG Version: 6.00 Build 0)  -->
<!DOCTYPE svg PUBLIC "-//W3C//DTD SVG 1.1//EN" "http://www.w3.org/Graphics/SVG/1.1/DTD/svg11.dtd">
<svg version="1.1" id="图层_1" xmlns="http://www.w3.org/2000/svg" xmlns:xlink="http://www.w3.org/1999/xlink" x="0px" y="0px"
	 width="61.56px" height="17.6px" viewBox="0 0 61.56 17.6" enable-background="new 0 0 61.56 17.6" xml:space="preserve">
<rect fill="#D8DCE1" stroke="#FFFFFF" stroke-width="0.25" stroke-miterlimit="10" width="61.56" height="17.6"/>
<rect fill="#C9DB4E" stroke="#FFFFFF" stroke-width="0.25" stroke-miterlimit="10" width="3.5" height="6.298"/>
<polyline fill="#115DAB" stroke="#FFFFFF" stroke-width="0.25" stroke-miterlimit="10" points="0,6.359 3.5,6.359 3.5,10.703 
	0,10.703 "/>
<rect y="10.766" fill="#6FC5C6" stroke="#FFFFFF" stroke-width="0.25" stroke-miterlimit="10" width="3.5" height="6.834"/>
<rect x="3.5" fill="#209DBC" stroke="#FFFFFF" stroke-width="0.25" stroke-miterlimit="10" width="3.75" height="1.828"/>
<polygon fill="#945D90" stroke="#FFFFFF" stroke-width="0.25" stroke-miterlimit="10" points="7.313,0 9.391,0 9.391,2.188 
	7.25,1.406 7.25,0 "/>
<polyline fill="#DAD78B" stroke="#FFFFFF" stroke-width="0.25" stroke-miterlimit="10" points="7.25,1.469 7.25,3.953 8.656,4.938 
	8.656,4.016 7.797,3.453 7.807,1.609 7.25,1.406 "/>
<rect x="5.438" y="8.395" fill="#DAD78B" stroke="#FFFFFF" stroke-width="0.25" stroke-miterlimit="10" width="6" height="9.205"/>
<polygon fill="#ACAA58" stroke="#FFFFFF" stroke-width="0.25" stroke-miterlimit="10" points="11.521,17.6 11.521,8.395 
	16.094,8.395 19.781,8.395 20.125,8.395 20.125,17.6 "/>
</svg>
