<?xml version="1.0" encoding="utf-8"?><!-- Generator: Adobe Illustrator 17.0.0, SVG Export Plug-In . SVG Version: 6.00 Build 0)  --><!DOCTYPE svg PUBLIC "-//W3C//DTD SVG 1.1//EN" "http://www.w3.org/Graphics/SVG/1.1/DTD/svg11.dtd"><svg version="1.1" xmlns="http://www.w3.org/2000/svg" xmlns:xlink="http://www.w3.org/1999/xlink" x="0px" y="0px" width="65.5px" height="21.4px" viewBox="0 0 65.5 21.4" enable-background="new 0 0 65.5 21.4" xml:space="preserve"><g id="LWPOLYLINE_101_" class="_area_background"><polyline fill="#F6E8F9" stroke="#FFFF00" stroke-width="7.076634e-004" stroke-linecap="round" stroke-linejoin="round" stroke-miterlimit="10" points="0.152,1.646 0.152,8.018 3.623,8.018 3.623,19.754 3.643,19.754 3.643,21.239 11.263,21.239 11.263,19.695 57.86,19.695 57.86,21.12 65.48,21.12 65.48,19.635 65.5,19.635 65.5,1.646 11.822,1.646 11.822,0.161 7.054,0.161 7.057,1.646 0.152,1.646 "/></g><g id="F2-SHOP-027" class="_area_merchant"><rect x="0.152" y="1.646" fill="#CEEFED" stroke="#FFFDFF" stroke-width="0.05" stroke-linecap="round" stroke-linejoin="round" stroke-miterlimit="10" width="3.471" height="6.373"/></g><g id="F2-SHOP-026" class="_area_merchant"><rect x="15.412" y="10.275" fill="#CEEFED" stroke="#FFFDFF" stroke-width="0.05" stroke-linecap="round" stroke-linejoin="round" stroke-miterlimit="10" width="8.478" height="9.42"/></g><g id="F2-SHOP-025" class="_area_merchant"><rect x="23.89" y="10.275" fill="#CEEFED" stroke="#FFFDFF" stroke-width="0.05" stroke-linecap="round" stroke-linejoin="round" stroke-miterlimit="10" width="7.081" height="9.42"/></g><g id="F2-SHOP-024" class="_area_merchant"><rect x="30.971" y="13.045" fill="#CEEFED" stroke="#FFFDFF" stroke-width="0.05" stroke-linecap="round" stroke-linejoin="round" stroke-miterlimit="10" width="2.991" height="6.65"/></g><g id="F2-SHOP-023" class="_area_merchant"><rect x="33.962" y="13.045" fill="#CEEFED" stroke="#FFFDFF" stroke-width="0.05" stroke-linecap="round" stroke-linejoin="round" stroke-miterlimit="10" width="25.713" height="6.65"/></g><g id="F2-SHOP-022" class="_area_merchant"><rect x="57.86" y="19.695" fill="#CEEFED" stroke="#FFFDFF" stroke-width="0.05" stroke-linecap="round" stroke-linejoin="round" stroke-miterlimit="10" width="7.62" height="1.425"/></g><g id="F2-SHOP-021" class="_area_merchant"><rect x="56.574" y="1.646" fill="#CEEFED" stroke="#FFFDFF" stroke-width="0.05" stroke-linecap="round" stroke-linejoin="round" stroke-miterlimit="10" width="4.498" height="4.948"/></g><g id="F2-SHOP-020" class="_area_merchant"><rect x="56.574" y="6.593" fill="#CEEFED" stroke="#FFFDFF" stroke-width="0.05" stroke-linecap="round" stroke-linejoin="round" stroke-miterlimit="10" width="2.703" height="1.465"/></g><g id="F2-SHOP-019" class="_area_merchant"><rect x="53.013" y="1.646" fill="#CEEFED" stroke="#FFFDFF" stroke-width="0.05" stroke-linecap="round" stroke-linejoin="round" stroke-miterlimit="10" width="6.263" height="9.42"/></g><g id="F2-SHOP-018" class="_area_merchant"><rect x="48.824" y="1.646" fill="#CEEFED" stroke="#FFFDFF" stroke-width="0.05" stroke-linecap="round" stroke-linejoin="round" stroke-miterlimit="10" width="4.189" height="9.42"/></g><g id="F2-SHOP-017" class="_area_merchant"><rect x="44.635" y="1.646" fill="#CEEFED" stroke="#FFFDFF" stroke-width="0.05" stroke-linecap="round" stroke-linejoin="round" stroke-miterlimit="10" width="4.189" height="9.42"/></g><g id="F2-SHOP-016" class="_area_merchant"><rect x="40.347" y="1.646" fill="#CEEFED" stroke="#FFFDFF" stroke-width="0.05" stroke-linecap="round" stroke-linejoin="round" stroke-miterlimit="10" width="4.288" height="9.42"/></g><g id="F2-SHOP-015" class="_area_merchant"><rect x="36.756" y="1.646" fill="#CEEFED" stroke="#FFFDFF" stroke-width="0.05" stroke-linecap="round" stroke-linejoin="round" stroke-miterlimit="10" width="3.591" height="9.42"/></g><g id="F2-SHOP-014" class="_area_merchant"><rect x="33.265" y="6.811" fill="#CEEFED" stroke="#FFFDFF" stroke-width="0.05" stroke-linecap="round" stroke-linejoin="round" stroke-miterlimit="10" width="3.491" height="4.255"/></g><g id="F2-SHOP-013" class="_area_merchant"><rect x="30.971" y="1.646" fill="#CEEFED" stroke="#FFFDFF" stroke-width="0.05" stroke-linecap="round" stroke-linejoin="round" stroke-miterlimit="10" width="5.785" height="5.165"/></g><g id="F2-SHOP-012" class="_area_merchant"><rect x="22.593" y="1.646" fill="#CEEFED" stroke="#FFFDFF" stroke-width="0.05" stroke-linecap="round" stroke-linejoin="round" stroke-miterlimit="10" width="8.378" height="6.432"/></g><g id="F2-SHOP-011" class="_area_merchant"><rect x="20.298" y="1.646" fill="#CEEFED" stroke="#FFFDFF" stroke-width="0.05" stroke-linecap="round" stroke-linejoin="round" stroke-miterlimit="10" width="2.295" height="3.045"/></g><g id="F2-SHOP-010" class="_area_merchant"><rect x="20.298" y="4.691" fill="#CEEFED" stroke="#FFFDFF" stroke-width="0.05" stroke-linecap="round" stroke-linejoin="round" stroke-miterlimit="10" width="2.295" height="3.387"/></g><g id="F2-SHOP-009" class="_area_merchant"><rect x="16.009" y="1.646" fill="#CEEFED" stroke="#FFFDFF" stroke-width="0.05" stroke-linecap="round" stroke-linejoin="round" stroke-miterlimit="10" width="4.289" height="6.61"/></g><g id="F2-SHOP-008" class="_area_merchant"><rect x="12.718" y="1.646" fill="#CEEFED" stroke="#FFFDFF" stroke-width="0.05" stroke-linecap="round" stroke-linejoin="round" stroke-miterlimit="10" width="3.291" height="2.911"/></g><g id="F2-SHOP-007" class="_area_merchant"><rect x="12.718" y="4.557" fill="#CEEFED" stroke="#FFFDFF" stroke-width="0.05" stroke-linecap="round" stroke-linejoin="round" stroke-miterlimit="10" width="1.976" height="2.912"/></g><g id="F2-SHOP-006" class="_area_merchant"><polyline fill="#CEEFED" stroke="#FFFDFF" stroke-width="0.05" stroke-linecap="round" stroke-linejoin="round" stroke-miterlimit="10" points="12.718,1.646 12.718,4.005 10.625,2.963 10.625,1.646 12.718,1.646 "/></g><g id="F2-SHOP-005" class="_area_merchant"><polyline fill="#CEEFED" stroke="#FFFDFF" stroke-width="0.05" stroke-linecap="round" stroke-linejoin="round" stroke-miterlimit="10" points="10.625,2.963 11.273,3.286 11.273,4.598 11.83,5.759 11.898,6.701 10.625,5.523 10.625,2.963 "/></g><g id="F2-SHOP-004" class="_area_merchant"><rect x="7.054" y="0.161" fill="#CEEFED" stroke="#FFFDFF" stroke-width="0.05" stroke-linecap="round" stroke-linejoin="round" stroke-miterlimit="10" width="4.767" height="1.484"/></g><g id="F2-SHOP-003" class="_area_merchant"><rect x="7.057" y="1.646" fill="#CEEFED" stroke="#FFFDFF" stroke-width="0.05" stroke-linecap="round" stroke-linejoin="round" stroke-miterlimit="10" width="3.567" height="1.955"/></g><g id="F2-SHOP-002" class="_area_merchant"><rect x="3.623" y="8.018" fill="#CEEFED" stroke="#FFFDFF" stroke-width="0.05" stroke-linecap="round" stroke-linejoin="round" stroke-miterlimit="10" width="3.81" height="4.354"/></g><g id="F2-SHOP-001" class="_area_merchant"><rect x="3.643" y="19.754" fill="#CEEFED" stroke="#FFFDFF" stroke-width="0.05" stroke-linecap="round" stroke-linejoin="round" stroke-miterlimit="10" width="7.62" height="1.484"/></g><g id="LWPOLYLINE_27_" class="_area_stair"><rect x="3.623" y="12.372" fill="#BFE2BC" width="3.81" height="7.085"/></g><g id="LWPOLYLINE_28_" class="_area_stair"><rect x="61.67" y="12.353" fill="#BFE2BC" width="3.83" height="7.283"/></g><g id="LWPOLYLINE_64_" class="_area_elevator"><rect x="3.623" y="1.646" fill="#EDD8EF" width="3.81" height="3.305"/></g><g id="LWPOLYLINE_62_" class="_area_elevator"><rect x="3.623" y="4.951" fill="#EDD8EF" width="3.81" height="3.068"/></g><g id="LWPOLYLINE_31_" class="_area_toilet"><rect x="61.072" y="1.646" fill="#F4F0D0" width="4.428" height="10.707"/></g><g id="LWPOLYLINE_60_"><rect x="3.623" y="1.646" fill="#BFBEB6" width="0.419" height="0.495"/></g><g id="LWPOLYLINE_59_"><rect x="7.057" y="1.646" fill="#BFBEB6" width="0.575" height="0.495"/></g><g id="LWPOLYLINE_58_"><rect x="3.623" y="10.275" fill="#BFBEB6" width="0.559" height="0.792"/></g><g id="LWPOLYLINE_57_"><rect x="7.034" y="10.275" fill="#BFBEB6" width="0.598" height="0.792"/></g><g id="LWPOLYLINE_56_"><rect x="3.623" y="19.16" fill="#BFBEB6" width="0.559" height="0.594"/></g><g id="LWPOLYLINE_55_"><rect x="7.034" y="19.16" fill="#BFBEB6" width="0.598" height="0.594"/></g><g id="LWPOLYLINE_54_"><rect x="14.814" y="19.084" fill="#BFBEB6" width="0.598" height="0.611"/></g><g id="LWPOLYLINE_53_"><rect x="22.593" y="19.084" fill="#BFBEB6" width="0.598" height="0.611"/></g><g id="LWPOLYLINE_52_"><rect x="14.814" y="10.275" fill="#BFBEB6" width="0.598" height="0.792"/></g><g id="LWPOLYLINE_51_"><rect x="22.593" y="10.275" fill="#BFBEB6" width="0.598" height="0.792"/></g><g id="LWPOLYLINE_50_"><rect x="30.373" y="19.084" fill="#BFBEB6" width="0.598" height="0.611"/></g><g id="LWPOLYLINE_49_"><rect x="38.152" y="19.084" fill="#BFBEB6" width="0.598" height="0.611"/></g><g id="LWPOLYLINE_48_"><rect x="45.932" y="19.084" fill="#BFBEB6" width="0.598" height="0.611"/></g><g id="LWPOLYLINE_47_"><rect x="53.711" y="19.084" fill="#BFBEB6" width="0.598" height="0.611"/></g><g id="LWPOLYLINE_46_"><rect x="61.491" y="19.16" fill="#BFBEB6" width="0.598" height="0.534"/></g><g id="LWPOLYLINE_45_"><rect x="65.081" y="19.16" fill="#BFBEB6" width="0.419" height="0.475"/></g><g id="LWPOLYLINE_44_"><rect x="65.081" y="10.255" fill="#BFBEB6" width="0.419" height="0.693"/></g><g id="LWPOLYLINE_43_"><rect x="60.872" y="10.275" fill="#BFBEB6" width="1.157" height="0.806"/></g><g id="LWPOLYLINE_42_"><rect x="65.081" y="1.646" fill="#BFBEB6" width="0.419" height="0.495"/></g><g id="LWPOLYLINE_41_"><rect x="61.072" y="1.646" fill="#BFBEB6" width="0.419" height="0.495"/></g><g id="LWPOLYLINE_40_"><rect x="53.711" y="10.275" fill="#BFBEB6" width="0.598" height="0.792"/></g><g id="LWPOLYLINE_39_"><rect x="53.711" y="1.646" fill="#BFBEB6" width="0.598" height="0.495"/></g><g id="LWPOLYLINE_38_"><rect x="38.152" y="1.646" fill="#BFBEB6" width="0.598" height="0.495"/></g><g id="LWPOLYLINE_37_"><rect x="45.932" y="10.275" fill="#BFBEB6" width="0.598" height="0.792"/></g><g id="LWPOLYLINE_36_"><rect x="38.152" y="10.275" fill="#BFBEB6" width="0.598" height="0.792"/></g><g id="LWPOLYLINE_35_"><rect x="30.373" y="10.275" fill="#BFBEB6" width="0.598" height="0.792"/></g><g id="LWPOLYLINE_34_"><rect x="30.373" y="1.646" fill="#BFBEB6" width="0.598" height="0.495"/></g><g id="LWPOLYLINE_33_"><rect x="22.593" y="1.646" fill="#BFBEB6" width="0.598" height="0.495"/></g><g id="LWPOLYLINE_32_"><rect x="14.814" y="1.646" fill="#BFBEB6" width="0.598" height="0.495"/></g><g id="LWPOLYLINE_30_"><rect x="45.932" y="1.646" fill="#BFBEB6" width="0.598" height="0.495"/></g><g id="LWPOLYLINE_29_"><rect x="0.152" y="1.646" fill="#BFBEB6" width="3.471" height="6.373"/></g><g id="LWPOLYLINE_1_"><rect x="9.228" y="10.275" fill="#BFBEB6" width="6.184" height="9.42"/></g></svg>