<svg id="svgmain" style="width:1920px;height:1080px" viewBox="0 0 1920 1080"><g id="svgPanel" transform="translate(188.9900390625,73.99043853759765)  scale(14.58)"><g id="LWPOLYLINE_101_" class="_area_background"><polyline fill="#F6E8F9" stroke="#FFFF00" stroke-width="7.076634e-004" stroke-linecap="round" stroke-linejoin="round" stroke-miterlimit="10" points="0.152,1.646 0.152,8.018 3.623,8.018 3.623,19.754 3.643,19.754 3.643,21.239 11.263,21.239 11.263,19.695 57.86,19.695 57.86,21.12 65.48,21.12 65.48,19.635 65.5,19.635 65.5,1.646 11.822,1.646 11.822,0.161 7.054,0.161 7.057,1.646 0.152,1.646 "></polyline></g><g id="F2-SHOP-027" class="_area_merchant"><rect x="0.152" y="1.646" fill="#CEEFED" stroke="#FFFDFF" stroke-width="0.05" stroke-linecap="round" stroke-linejoin="round" stroke-miterlimit="10" width="3.471" height="6.373"></rect></g><g id="F2-SHOP-026" class="_area_merchant" poiname="销售部"><rect x="15.412" y="10.275" fill="#CEEFED" stroke="#FFFDFF" stroke-width="0.05" stroke-linecap="round" stroke-linejoin="round" stroke-miterlimit="10" width="8.478" height="9.42"></rect></g><g id="F2-SHOP-025" class="_area_merchant" poiname="经理办公室"><rect x="23.89" y="10.275" fill="#CEEFED" stroke="#FFFDFF" stroke-width="0.05" stroke-linecap="round" stroke-linejoin="round" stroke-miterlimit="10" width="7.081" height="9.42"></rect></g><g id="F2-SHOP-024" class="_area_merchant" poiname="财务室"><rect x="30.971" y="13.045" fill="#CEEFED" stroke="#FFFDFF" stroke-width="0.05" stroke-linecap="round" stroke-linejoin="round" stroke-miterlimit="10" width="2.991" height="6.65"></rect></g><g id="F2-SHOP-023" class="_area_merchant" poiname="测试区生产车间"><rect x="33.962" y="13.045" fill="#CEEFED" stroke="#FFFDFF" stroke-width="0.05" stroke-linecap="round" stroke-linejoin="round" stroke-miterlimit="10" width="25.713" height="6.65"></rect></g><g id="F2-SHOP-022" class="_area_merchant"><rect x="57.86" y="19.695" fill="#CEEFED" stroke="#FFFDFF" stroke-width="0.05" stroke-linecap="round" stroke-linejoin="round" stroke-miterlimit="10" width="7.62" height="1.425"></rect></g><g id="F2-SHOP-021" class="_area_merchant"><rect x="56.574" y="1.646" fill="#CEEFED" stroke="#FFFDFF" stroke-width="0.05" stroke-linecap="round" stroke-linejoin="round" stroke-miterlimit="10" width="4.498" height="4.948"></rect></g><g id="F2-SHOP-020" class="_area_merchant"><rect x="56.574" y="6.593" fill="#CEEFED" stroke="#FFFDFF" stroke-width="0.05" stroke-linecap="round" stroke-linejoin="round" stroke-miterlimit="10" width="2.703" height="1.465"></rect></g><g id="F2-SHOP-019" class="_area_merchant" poiname="可靠性实验室"><rect x="53.013" y="1.646" fill="#CEEFED" stroke="#FFFDFF" stroke-width="0.05" stroke-linecap="round" stroke-linejoin="round" stroke-miterlimit="10" width="6.263" height="9.42"></rect></g><g id="F2-SHOP-018" class="_area_merchant" poiname="包材仓"><rect x="48.824" y="1.646" fill="#CEEFED" stroke="#FFFDFF" stroke-width="0.05" stroke-linecap="round" stroke-linejoin="round" stroke-miterlimit="10" width="4.189" height="9.42"></rect></g><g id="F2-SHOP-017" class="_area_merchant" poiname="成品仓"><rect x="44.635" y="1.646" fill="#CEEFED" stroke="#FFFDFF" stroke-width="0.05" stroke-linecap="round" stroke-linejoin="round" stroke-miterlimit="10" width="4.189" height="9.42"></rect></g><g id="F2-SHOP-016" class="_area_merchant" poiname="物料仓"><rect x="40.347" y="1.646" fill="#CEEFED" stroke="#FFFDFF" stroke-width="0.05" stroke-linecap="round" stroke-linejoin="round" stroke-miterlimit="10" width="4.288" height="9.42"></rect></g><g id="F2-SHOP-015" class="_area_merchant"><rect x="36.756" y="1.646" fill="#CEEFED" stroke="#FFFDFF" stroke-width="0.05" stroke-linecap="round" stroke-linejoin="round" stroke-miterlimit="10" width="3.591" height="9.42"></rect></g><g id="F2-SHOP-014" class="_area_merchant"><rect x="33.265" y="6.811" fill="#CEEFED" stroke="#FFFDFF" stroke-width="0.05" stroke-linecap="round" stroke-linejoin="round" stroke-miterlimit="10" width="3.491" height="4.255"></rect></g><g id="F2-SHOP-013" class="_area_merchant"><rect x="30.971" y="1.646" fill="#CEEFED" stroke="#FFFDFF" stroke-width="0.05" stroke-linecap="round" stroke-linejoin="round" stroke-miterlimit="10" width="5.785" height="5.165"></rect></g><g id="F2-SHOP-012" class="_area_merchant"><rect x="22.593" y="1.646" fill="#CEEFED" stroke="#FFFDFF" stroke-width="0.05" stroke-linecap="round" stroke-linejoin="round" stroke-miterlimit="10" width="8.378" height="6.432"></rect></g><g id="F2-SHOP-011" class="_area_merchant"><rect x="20.298" y="1.646" fill="#CEEFED" stroke="#FFFDFF" stroke-width="0.05" stroke-linecap="round" stroke-linejoin="round" stroke-miterlimit="10" width="2.295" height="3.045"></rect></g><g id="F2-SHOP-010" class="_area_merchant"><rect x="20.298" y="4.691" fill="#CEEFED" stroke="#FFFDFF" stroke-width="0.05" stroke-linecap="round" stroke-linejoin="round" stroke-miterlimit="10" width="2.295" height="3.387"></rect></g><g id="F2-SHOP-009" class="_area_merchant"><rect x="16.009" y="1.646" fill="#CEEFED" stroke="#FFFDFF" stroke-width="0.05" stroke-linecap="round" stroke-linejoin="round" stroke-miterlimit="10" width="4.289" height="6.61"></rect></g><g id="F2-SHOP-008" class="_area_merchant"><rect x="12.718" y="1.646" fill="#CEEFED" stroke="#FFFDFF" stroke-width="0.05" stroke-linecap="round" stroke-linejoin="round" stroke-miterlimit="10" width="3.291" height="2.911"></rect></g><g id="F2-SHOP-007" class="_area_merchant"><rect x="12.718" y="4.557" fill="#CEEFED" stroke="#FFFDFF" stroke-width="0.05" stroke-linecap="round" stroke-linejoin="round" stroke-miterlimit="10" width="1.976" height="2.912"></rect></g><g id="F2-SHOP-006" class="_area_merchant"><polyline fill="#CEEFED" stroke="#FFFDFF" stroke-width="0.05" stroke-linecap="round" stroke-linejoin="round" stroke-miterlimit="10" points="12.718,1.646 12.718,4.005 10.625,2.963 10.625,1.646 12.718,1.646 "></polyline></g><g id="F2-SHOP-005" class="_area_merchant"><polyline fill="#CEEFED" stroke="#FFFDFF" stroke-width="0.05" stroke-linecap="round" stroke-linejoin="round" stroke-miterlimit="10" points="10.625,2.963 11.273,3.286 11.273,4.598 11.83,5.759 11.898,6.701 10.625,5.523 10.625,2.963 "></polyline></g><g id="F2-SHOP-004" class="_area_merchant"><rect x="7.054" y="0.161" fill="#CEEFED" stroke="#FFFDFF" stroke-width="0.05" stroke-linecap="round" stroke-linejoin="round" stroke-miterlimit="10" width="4.767" height="1.484"></rect></g><g id="F2-SHOP-003" class="_area_merchant"><rect x="7.057" y="1.646" fill="#CEEFED" stroke="#FFFDFF" stroke-width="0.05" stroke-linecap="round" stroke-linejoin="round" stroke-miterlimit="10" width="3.567" height="1.955"></rect></g><g id="F2-SHOP-002" class="_area_merchant"><rect x="3.623" y="8.018" fill="#CEEFED" stroke="#FFFDFF" stroke-width="0.05" stroke-linecap="round" stroke-linejoin="round" stroke-miterlimit="10" width="3.81" height="4.354"></rect></g><g id="F2-SHOP-001" class="_area_merchant"><rect x="3.643" y="19.754" fill="#CEEFED" stroke="#FFFDFF" stroke-width="0.05" stroke-linecap="round" stroke-linejoin="round" stroke-miterlimit="10" width="7.62" height="1.484"></rect></g><g id="LWPOLYLINE_27_" class="_area_stair"><rect x="3.623" y="12.372" fill="#BFE2BC" width="3.81" height="7.085"></rect></g><g id="LWPOLYLINE_28_" class="_area_stair"><rect x="61.67" y="12.353" fill="#BFE2BC" width="3.83" height="7.283"></rect></g><g id="LWPOLYLINE_64_" class="_area_elevator"><rect x="3.623" y="1.646" fill="#EDD8EF" width="3.81" height="3.305"></rect></g><g id="LWPOLYLINE_62_" class="_area_elevator"><rect x="3.623" y="4.951" fill="#EDD8EF" width="3.81" height="3.068"></rect></g><g id="LWPOLYLINE_31_" class="_area_toilet"><rect x="61.072" y="1.646" fill="#F4F0D0" width="4.428" height="10.707"></rect></g><g id="LWPOLYLINE_60_"><rect x="3.623" y="1.646" fill="#BFBEB6" width="0.419" height="0.495"></rect></g><g id="LWPOLYLINE_59_"><rect x="7.057" y="1.646" fill="#BFBEB6" width="0.575" height="0.495"></rect></g><g id="LWPOLYLINE_58_"><rect x="3.623" y="10.275" fill="#BFBEB6" width="0.559" height="0.792"></rect></g><g id="LWPOLYLINE_57_"><rect x="7.034" y="10.275" fill="#BFBEB6" width="0.598" height="0.792"></rect></g><g id="LWPOLYLINE_56_"><rect x="3.623" y="19.16" fill="#BFBEB6" width="0.559" height="0.594"></rect></g><g id="LWPOLYLINE_55_"><rect x="7.034" y="19.16" fill="#BFBEB6" width="0.598" height="0.594"></rect></g><g id="LWPOLYLINE_54_"><rect x="14.814" y="19.084" fill="#BFBEB6" width="0.598" height="0.611"></rect></g><g id="LWPOLYLINE_53_"><rect x="22.593" y="19.084" fill="#BFBEB6" width="0.598" height="0.611"></rect></g><g id="LWPOLYLINE_52_"><rect x="14.814" y="10.275" fill="#BFBEB6" width="0.598" height="0.792"></rect></g><g id="LWPOLYLINE_51_"><rect x="22.593" y="10.275" fill="#BFBEB6" width="0.598" height="0.792"></rect></g><g id="LWPOLYLINE_50_"><rect x="30.373" y="19.084" fill="#BFBEB6" width="0.598" height="0.611"></rect></g><g id="LWPOLYLINE_49_"><rect x="38.152" y="19.084" fill="#BFBEB6" width="0.598" height="0.611"></rect></g><g id="LWPOLYLINE_48_"><rect x="45.932" y="19.084" fill="#BFBEB6" width="0.598" height="0.611"></rect></g><g id="LWPOLYLINE_47_"><rect x="53.711" y="19.084" fill="#BFBEB6" width="0.598" height="0.611"></rect></g><g id="LWPOLYLINE_46_"><rect x="61.491" y="19.16" fill="#BFBEB6" width="0.598" height="0.534"></rect></g><g id="LWPOLYLINE_45_"><rect x="65.081" y="19.16" fill="#BFBEB6" width="0.419" height="0.475"></rect></g><g id="LWPOLYLINE_44_"><rect x="65.081" y="10.255" fill="#BFBEB6" width="0.419" height="0.693"></rect></g><g id="LWPOLYLINE_43_"><rect x="60.872" y="10.275" fill="#BFBEB6" width="1.157" height="0.806"></rect></g><g id="LWPOLYLINE_42_"><rect x="65.081" y="1.646" fill="#BFBEB6" width="0.419" height="0.495"></rect></g><g id="LWPOLYLINE_41_"><rect x="61.072" y="1.646" fill="#BFBEB6" width="0.419" height="0.495"></rect></g><g id="LWPOLYLINE_40_"><rect x="53.711" y="10.275" fill="#BFBEB6" width="0.598" height="0.792"></rect></g><g id="LWPOLYLINE_39_"><rect x="53.711" y="1.646" fill="#BFBEB6" width="0.598" height="0.495"></rect></g><g id="LWPOLYLINE_38_"><rect x="38.152" y="1.646" fill="#BFBEB6" width="0.598" height="0.495"></rect></g><g id="LWPOLYLINE_37_"><rect x="45.932" y="10.275" fill="#BFBEB6" width="0.598" height="0.792"></rect></g><g id="LWPOLYLINE_36_"><rect x="38.152" y="10.275" fill="#BFBEB6" width="0.598" height="0.792"></rect></g><g id="LWPOLYLINE_35_"><rect x="30.373" y="10.275" fill="#BFBEB6" width="0.598" height="0.792"></rect></g><g id="LWPOLYLINE_34_"><rect x="30.373" y="1.646" fill="#BFBEB6" width="0.598" height="0.495"></rect></g><g id="LWPOLYLINE_33_"><rect x="22.593" y="1.646" fill="#BFBEB6" width="0.598" height="0.495"></rect></g><g id="LWPOLYLINE_32_"><rect x="14.814" y="1.646" fill="#BFBEB6" width="0.598" height="0.495"></rect></g><g id="LWPOLYLINE_30_"><rect x="45.932" y="1.646" fill="#BFBEB6" width="0.598" height="0.495"></rect></g><g id="LWPOLYLINE_29_"><rect x="0.152" y="1.646" fill="#BFBEB6" width="3.471" height="6.373"></rect></g><g id="LWPOLYLINE_1_"><rect x="9.228" y="10.275" fill="#BFBEB6" width="6.184" height="9.42"></rect></g><text style="pointer-events: none; font-size: 0.575403px; display: block;" id="F2-SHOP-026Text" x="19.91" y="12.45" fill="#555">销售部</text><circle id="F2-SHOP-026Dot" cx="19.52639824304539" cy="12.194791804435138" stroke="white" stroke-width="0.0479502196193265" r="0.2397510980966325" fill="#58a5f5" opacity="0.8" style="display: block;"></circle><text style="pointer-events: none; font-size: 0.575403px; display: block;" id="F2-SHOP-025Text" x="28.3" y="14.4" fill="#555">经理办公室</text><circle id="F2-SHOP-025Dot" cx="27.91639824304539" cy="14.14479131666028" stroke="white" stroke-width="0.0479502196193265" r="0.2397510980966325" fill="#58a5f5" opacity="0.8" style="display: block;"></circle><text style="pointer-events: none; font-size: 0.575403px; display: block;" id="F2-SHOP-024Text" x="32.59" y="15.13" fill="#555">财务室</text><circle id="F2-SHOP-024Dot" cx="32.20639824304539" cy="14.874791804435139" stroke="white" stroke-width="0.0479502196193265" r="0.2397510980966325" fill="#58a5f5" opacity="0.8" style="display: block;"></circle><text style="pointer-events: none; font-size: 0.575403px; display: block;" id="F2-SHOP-023Text" x="46.21" y="14.34" fill="#555">测试区生产车间</text><circle id="F2-SHOP-023Dot" cx="45.82639824304539" cy="14.08479131666028" stroke="white" stroke-width="0.0479502196193265" r="0.2397510980966325" fill="#58a5f5" opacity="0.8" style="display: block;"></circle><text style="pointer-events: none; font-size: 0.575403px; display: block;" id="F2-SHOP-019Text" x="55.85" y="9.03" fill="#555">可靠性实验室</text><circle id="F2-SHOP-019Dot" cx="55.46639824304539" cy="8.774791316660279" stroke="white" stroke-width="0.0479502196193265" r="0.2397510980966325" fill="#58a5f5" opacity="0.8" style="display: block;"></circle><text style="pointer-events: none; font-size: 0.575403px; display: block;" id="F2-SHOP-018Text" x="51.15" y="8.83" fill="#555">包材仓</text><circle id="F2-SHOP-018Dot" cx="50.76639824304539" cy="8.574791804435138" stroke="white" stroke-width="0.0479502196193265" r="0.2397510980966325" fill="#58a5f5" opacity="0.8" style="display: block;"></circle><text style="pointer-events: none; font-size: 0.575403px; display: block;" id="F2-SHOP-017Text" x="46.81" y="8.48" fill="#555">成品仓</text><circle id="F2-SHOP-017Dot" cx="46.42639824304539" cy="8.224791804435139" stroke="white" stroke-width="0.0479502196193265" r="0.2397510980966325" fill="#58a5f5" opacity="0.8" style="display: block;"></circle><text style="pointer-events: none; font-size: 0.575403px; display: block;" id="F2-SHOP-016Text" x="42.82" y="8.63" fill="#555">物料仓</text><circle id="F2-SHOP-016Dot" cx="42.43639824304539" cy="8.37479131666028" stroke="white" stroke-width="0.0479502196193265" r="0.2397510980966325" fill="#58a5f5" opacity="0.8" style="display: block;"></circle></g></svg>