<?xml version="1.0" encoding="utf-8"?><!-- Generator: Adobe Illustrator 16.0.0, SVG Export Plug-In . SVG Version: 6.00 Build 0)  --><!DOCTYPE svg PUBLIC "-//W3C//DTD SVG 1.1//EN" "http://www.w3.org/Graphics/SVG/1.1/DTD/svg11.dtd"><svg version="1.1" id="svgmain" xmlns="http://www.w3.org/2000/svg" xmlns:xlink="http://www.w3.org/1999/xlink" x="0px" y="0px"	 width="1700.801px" height="850.4px" viewBox="0 0 1700.801 850.4" enable-background="new 0 0 1700.801 850.4"	 xml:space="preserve"><polyline fill="none" stroke="#5B5B5B" points="1371.7,179.1 1357.9,179.1 1357.9,105.3 1371.7,105.3 "/><polyline fill="none" stroke="#5B5B5B" stroke-dasharray="1.153,0.5765" points="1369.2,126 1364.7,131.6 1359.301,126 	1363.801,119.3 1369.2,124.8 "/><polyline fill="none" stroke="#5B5B5B" points="1368.501,125.9 1368.501,125.9 1368.4,126.9 1368.1,127.8 1367.7,128.6 	1367.2,129.3 1366.7,129.9 1366.001,130.4 1365.4,130.7 1364.7,130.9 1363.9,130.9 1363.301,130.7 1362.6,130.5 1361.9,130 	1361.4,129.5 1360.9,128.8 1360.501,128 1360.2,127.1 1360.001,126.2 1360.001,125.2 1360.1,124.3 1360.301,123.4 1360.6,122.5 	1361.001,121.8 1361.6,121.1 1362.2,120.6 1362.801,120.2 1363.501,120 1364.2,119.9 1364.301,119.9 1364.7,120 1365.4,120.1 	1366.1,120.5 1366.7,120.9 1367.301,121.6 1367.801,122.3 1368.1,123.1 1368.4,124 1368.501,124.9 "/><polygon fill="none" stroke="#5B5B5B" points="1366.9,125.4 1366.301,124.8 1365.7,125.4 1366.301,126 1366.9,125.4 "/><polyline fill="none" stroke="#5B5B5B" points="1370.501,125.3 1370.6,125.4 1370.501,125.6 1370.4,125.4 1370.501,125.3 "/><polyline fill="none" stroke="#5B5B5B" points="1369.501,125.8 1369.4,125.8 1369.1,125.8 1368.7,125.8 1368.6,125.8 1368.6,125.8 	1368.501,125.8 1368.301,125.7 1368.001,125.7 1367.7,125.7 "/><polyline fill="none" stroke="#5B5B5B" points="1369.501,125 1369.4,125 1369.1,125 1368.7,125.1 1368.6,125.1 1368.6,125.1 	1368.501,125.1 1368.301,125.1 1368.001,125.1 1367.7,125.1 "/><polyline fill="none" stroke="#5B5B5B" points="1369.7,126 1370.4,125.5 1370.001,124.8 1369.7,124.8 "/><polyline fill="none" stroke="#5B5B5B" points="1369.501,125 1369.4,125.8 1369.501,125.8 "/><polyline fill="none" stroke="#5B5B5B" points="1369.4,126.6 1370.001,127.1 1370.6,126.6 "/><polyline fill="none" stroke="#5B5B5B" points="1367.7,125.1 1367.4,125.4 1367.7,125.7 "/><polyline fill="none" stroke="#5B5B5B" points="1369.7,126 1368.6,125.9 1368.2,125.8 1367.7,125.8 1367.7,125.8 "/><polyline fill="none" stroke="#5B5B5B" points="1369.7,124.8 1368.6,124.9 1368.2,125 1367.7,125 1367.7,125 "/><polyline fill="none" stroke="#5B5B5B" points="1367.7,125 1367.301,125.4 1367.7,125.8 "/><polyline fill="none" stroke="#5B5B5B" points="1369.1,126 1368.2,125.9 1367.7,125.9 "/><polyline fill="none" stroke="#5B5B5B" points="1369.1,124.8 1368.2,124.9 1367.7,124.9 "/><polyline fill="none" stroke="#5B5B5B" points="1367.7,124.9 1367.2,125.4 1367.7,125.9 "/><polyline fill="none" stroke="#5B5B5B" points="1370.6,124.3 1370.001,123.7 1369.4,124.3 "/><polygon fill="none" stroke="#5B5B5B" points="1366.6,125.4 1366.301,125.1 1365.9,125.4 1366.301,125.8 1366.6,125.4 "/><polyline fill="none" stroke="#5B5B5B" stroke-dasharray="1.153,0.5765" points="1369.2,158.7 1364.7,164.3 1359.301,158.7 1363.801,152 1369.2,157.5 "/><polyline fill="none" stroke="#5B5B5B" points="1368.501,158.6 1368.501,158.7 1368.4,159.6 1368.1,160.5 1367.7,161.3 1367.2,162.1 1366.7,162.6 1366.001,163.1 1365.4,163.4 1364.7,163.6 1363.9,163.6 1363.301,163.5 1362.6,163.2 1361.9,162.7 1361.4,162.2 1360.9,161.5 1360.501,160.7 1360.2,159.8 1360.001,158.9 1360.001,157.9 1360.1,157 1360.301,156.1 1360.6,155.2 1361.001,154.5 1361.6,153.8 1362.2,153.3 1362.801,152.9 1363.501,152.7 1364.2,152.6 1364.301,152.6 1364.7,152.7 1365.4,152.8 1366.1,153.2 1366.7,153.7 1367.301,154.3 1367.801,155 1368.1,155.8 1368.4,156.7 1368.501,157.6 "/><polygon fill="none" stroke="#5B5B5B" points="1366.9,158.1 1366.301,157.5 1365.7,158.1 1366.301,158.7 1366.9,158.1 "/><polyline fill="none" stroke="#5B5B5B" points="1370.501,158 1370.6,158.1 1370.501,158.3 1370.4,158.1 1370.501,158 "/><polyline fill="none" stroke="#5B5B5B" points="1369.501,158.5 1369.4,158.5 1369.1,158.5 1368.7,158.5 1368.6,158.5 1368.6,158.5 1368.501,158.5 1368.301,158.4 1368.001,158.4 1367.7,158.4 "/><polyline fill="none" stroke="#5B5B5B" points="1369.501,157.7 1369.4,157.7 1369.1,157.7 1368.7,157.8 1368.6,157.8 1368.6,157.8 1368.501,157.8 1368.301,157.8 1368.001,157.8 1367.7,157.8 "/><polyline fill="none" stroke="#5B5B5B" points="1369.7,158.7 1370.4,158.2 1370.001,157.6 1369.7,157.6 "/><polyline fill="none" stroke="#5B5B5B" points="1369.501,157.7 1369.4,158.5 1369.501,158.5 "/><polyline fill="none" stroke="#5B5B5B" points="1369.4,159.3 1370.001,159.8 1370.6,159.3 "/><polyline fill="none" stroke="#5B5B5B" points="1367.7,157.8 1367.4,158.1 1367.7,158.4 "/><polyline fill="none" stroke="#5B5B5B" points="1369.7,158.7 1368.6,158.6 1368.2,158.5 1367.7,158.5 1367.7,158.5 "/><polyline fill="none" stroke="#5B5B5B" points="1369.7,157.6 1368.6,157.7 1368.2,157.7 1367.7,157.7 1367.7,157.7 "/><polyline fill="none" stroke="#5B5B5B" points="1367.7,157.7 1367.301,158.1 1367.7,158.5 "/><polyline fill="none" stroke="#5B5B5B" points="1369.1,158.7 1368.2,158.6 1367.7,158.6 "/><polyline fill="none" stroke="#5B5B5B" points="1369.1,157.5 1368.2,157.6 1367.7,157.7 "/><polyline fill="none" stroke="#5B5B5B" points="1367.7,157.7 1367.2,158.1 1367.7,158.6 "/><polyline fill="none" stroke="#5B5B5B" points="1370.6,157 1370.001,156.4 1369.4,157 "/><polygon fill="none" stroke="#5B5B5B" points="1366.6,158.1 1366.301,157.8 1365.9,158.1 1366.301,158.5 1366.6,158.1 "/><polygon fill="none" stroke="#5B5B5B" stroke-width="0.0553" points="1412.2,41.7 1411.301,42.6 1412.2,43.5 1413.1,42.6 "/><polyline fill="none" stroke="#5B5B5B" points="1411.7,40.6 1410.501,41.6 1410.501,41.7 "/><polyline fill="none" stroke="#5B5B5B" points="1410.501,43.5 1411.6,44.6 1411.7,44.6 "/><polygon fill="none" stroke="#5B5B5B" stroke-width="0.0553" points="1348.7,65.8 1349.6,66.7 1348.7,67.6 1347.801,66.7 "/><polyline fill="none" stroke="#5B5B5B" points="1349.2,64.7 1349.301,64.7 1350.4,65.8 "/><polyline fill="none" stroke="#5B5B5B" points="1350.4,67.6 1350.4,67.7 1349.2,68.7 "/><polygon fill="none" stroke="#5B5B5B" points="1363.7,243.8 1363.501,243.6 1363.4,243.8 1363.501,243.9 1363.7,243.8 "/><polygon fill="none" stroke="#5B5B5B" points="1364.001,243.8 1363.501,243.3 1363.1,243.8 1363.501,244.2 1364.001,243.8 "/><polyline fill="none" stroke="#5B5B5B" points="1364.1,242 1363.301,241.7 1363.001,242 "/><polyline fill="none" stroke="#5B5B5B" points="1363.9,242 1363.301,242 1363.2,242 "/><polygon fill="none" stroke="#5B5B5B" points="1365.1,238 1366.301,239.8 1367.1,240.8 1367.801,240.8 1367.801,240.8 	1367.801,240.6 1368.001,240.4 1368.501,240.4 1368.7,240.6 1368.7,245.5 1358.4,245.5 1358.4,240.6 1358.6,240.4 1359.1,240.4 	1359.301,240.6 1359.301,240.8 1359.9,240.9 1360.001,240.8 1360.801,239.8 1362.001,238 1362.2,237.9 1363.501,237.9 1364.9,237.9 	"/><polyline fill="none" stroke="#5B5B5B" points="1366.4,242 1365.001,239.4 1364.801,238.5 1364.6,238.3 1363.501,238.3 	1362.501,238.3 1362.301,238.5 1362.1,239.4 1360.7,242 "/><polygon fill="none" stroke="#5B5B5B" points="1322.501,45.4 1321.9,44.8 1321.301,45.4 1321.9,46 1322.501,45.4 "/><polygon fill="none" stroke="#5B5B5B" points="1324.301,44.9 1325.6,43.1 1325.301,43 1324.2,44.8 "/><polygon fill="none" stroke="#5B5B5B" points="1322.501,40.6 1321.9,40 1321.301,40.6 1321.9,41.1 1322.501,40.6 "/><polyline fill="none" stroke="#5B5B5B" points="594.1,54.5 594.1,86.8 580.301,86.8 580.301,54.5 594.1,54.5 "/><polyline fill="none" stroke="#5B5B5B" points="594.1,86.8 594.1,119.1 580.301,119.1 580.301,86.8 594.1,86.8 "/><polyline fill="none" stroke="#5B5B5B" points="594.1,119.1 594.1,151.4 580.301,151.4 580.301,119.1 594.1,119.1 "/><polyline fill="none" stroke="#5B5B5B" points="465.001,54.5 465.001,86.8 478.801,86.8 478.801,54.5 465.001,54.5 "/><polyline fill="none" stroke="#5B5B5B" points="465.001,86.8 465.001,119.1 478.801,119.1 478.801,86.8 465.001,86.8 "/><polyline fill="none" stroke="#5B5B5B" points="465.001,119.1 465.001,151.4 478.801,151.4 478.801,119.1 465.001,119.1 "/><polyline fill="none" stroke="#5B5B5B" points="529.501,54.5 529.501,86.8 515.7,86.8 515.7,54.5 529.501,54.5 "/><polyline fill="none" stroke="#5B5B5B" points="529.501,86.8 529.501,119.1 515.7,119.1 515.7,86.8 529.501,86.8 "/><polyline fill="none" stroke="#5B5B5B" points="529.501,119.1 529.501,151.4 515.7,151.4 515.7,119.1 529.501,119.1 "/><polyline fill="none" stroke="#5B5B5B" points="529.501,54.5 529.501,86.8 543.4,86.8 543.4,54.5 529.501,54.5 "/><polyline fill="none" stroke="#5B5B5B" points="529.501,86.8 529.501,119.1 543.4,119.1 543.4,86.8 529.501,86.8 "/><polyline fill="none" stroke="#5B5B5B" points="529.501,119.1 529.501,151.4 543.4,151.4 543.4,119.1 529.501,119.1 "/><polyline fill="none" stroke="#5B5B5B" points="529.501,22.3 529.501,54.5 515.7,54.5 515.7,22.3 529.501,22.3 "/><polyline fill="none" stroke="#5B5B5B" points="529.501,22.3 529.501,54.5 543.4,54.5 543.4,22.3 529.501,22.3 "/><path fill="f1a" stroke="#5B5B5B" d="M162.9,62.3L162.9,62.3 M165.2,62.3L165.2,62.3 M162.9,91.8v-83 M177.9,70.3V42.4 M162.9,91.8	l29.399,27.5 M177.9,70.3l11,25.3"/><polygon fill="none" stroke="#5B5B5B" points="1175.2,221 1193.7,221 1193.7,218.7 1175.2,218.7 "/><polygon fill="none" stroke="#5B5B5B" points="1315.4,13 1329.301,13 1329.301,80.8 1315.4,80.8 "/><polygon fill="none" stroke="#5B5B5B" points="1329.301,121.4 1334.801,121.4 1334.801,162.9 1329.301,162.9 "/><polygon fill="none" stroke="#5B5B5B" points="877.801,201.4 877.801,219.9 878.2,219.9 878.2,201.4 "/><polygon fill="none" stroke="#5B5B5B" points="914.6,201.4 914.6,219.9 914.2,219.9 914.2,201.4 "/><polygon fill="none" stroke="#5B5B5B" points="877.801,221 914.6,221 914.6,218.7 877.801,218.7 "/><polygon fill="none" stroke="#5B5B5B" points="995.4,201.4 995.4,219.9 995.801,219.9 995.801,201.4 "/><polygon fill="none" stroke="#5B5B5B" points="1032.301,201.4 1032.301,219.9 1031.801,219.9 1031.801,201.4 "/><polygon fill="none" stroke="#5B5B5B" points="995.4,221 1032.301,221 1032.301,218.7 995.4,218.7 "/><polygon fill="none" stroke="#5B5B5B" points="1074.9,201.4 1074.9,219.9 1075.4,219.9 1075.4,201.4 "/><polygon fill="none" stroke="#5B5B5B" points="1111.801,201.4 1111.801,219.9 1111.4,219.9 1111.4,201.4 "/><polygon fill="none" stroke="#5B5B5B" points="1074.9,221 1111.801,221 1111.801,218.7 1074.9,218.7 "/><polygon fill="none" stroke="#5B5B5B" points="134.6,44.4 134.6,31.7 109.3,31.7 109.3,44.4 "/><polygon fill="none" stroke="#5B5B5B" points="133.9,43.7 133.9,32.4 110,32.4 110,43.7 "/><polyline fill="none" stroke="#5B5B5B" points="142.9,41.8 144,42.8 142.9,41.8 142.9,31.2 144,30.1 156.7,30.1 156.7,42.8 	144,42.8 "/><polygon fill="none" stroke="#5B5B5B" points="146.1,42.8 145,43.9 145,46 146.1,47 158.8,47 159.8,46 159.8,27 158.8,25.9 	146.1,25.9 145,27 145,29.1 146.1,30.1 156.7,30.1 156.7,42.8 "/><polygon fill="none" stroke="#5B5B5B" points="159.3,21.9 159.3,9.3 146.6,9.3 146.6,21.9 "/><polygon fill="none" stroke="#5B5B5B" points="140.7,21.2 141.8,22.2 143.9,22.2 145,21.2 145,8.5 143.9,7.4 99.5,7.4 98.5,8.5 	98.5,21.2 99.5,22.2 101.6,22.2 102.7,21.2 102.7,10.6 140.7,10.6 "/><polyline fill="none" stroke="#5B5B5B" points="139.7,24.4 140.7,23.3 139.7,24.4 129.1,24.4 128.1,23.3 128.1,10.6 140.7,10.6 	140.7,23.3 "/><polyline fill="none" stroke="#5B5B5B" points="127,24.4 128.1,23.3 127,24.4 116.4,24.4 115.4,23.3 115.4,10.6 128.1,10.6 	128.1,23.3 "/><polyline fill="none" stroke="#5B5B5B" points="114.3,24.4 115.4,23.3 114.3,24.4 103.7,24.4 102.7,23.3 102.7,10.6 115.4,10.6 	115.4,23.3 "/><polygon fill="none" stroke="#5B5B5B" points="155.5,42.8 154.5,41.8 154.5,31.2 155.5,30.1 156.7,30.1 156.7,42.8 "/><polygon fill="none" stroke="#5B5B5B" points="156.7,15.5 152.9,11.7 149.2,15.5 152.9,19.2 156.7,15.5 "/><polygon fill="none" stroke="#5B5B5B" points="154.2,15.5 152.9,14.2 151.7,15.5 152.9,16.7 154.2,15.5 "/><polygon fill="none" stroke="#5B5B5B" points="156,15.5 152.9,12.4 149.9,15.5 152.9,18.6 156,15.5 "/><polygon fill="none" stroke="#5B5B5B" points="158.6,21.2 158.6,9.9 147.3,9.9 147.3,21.2 "/><polygon fill="none" stroke="#5B5B5B" points="140.7,11.8 139.7,12.8 103.7,12.8 102.7,11.8 102.7,10.6 140.7,10.6 "/><polyline fill="none" stroke="#5B5B5B" points="594.1,54.5 594.1,86.8 607.9,86.8 607.9,54.5 594.1,54.5 "/><polyline fill="none" stroke="#5B5B5B" points="594.1,86.8 594.1,119.1 607.9,119.1 607.9,86.8 594.1,86.8 "/><polyline fill="none" stroke="#5B5B5B" points="594.1,119.1 594.1,151.4 607.9,151.4 607.9,119.1 594.1,119.1 "/><polyline fill="none" stroke="#5B5B5B" points="594.1,22.3 594.1,54.5 580.301,54.5 580.301,22.3 594.1,22.3 "/><polyline fill="none" stroke="#5B5B5B" points="594.1,22.3 594.1,54.5 607.9,54.5 607.9,22.3 594.1,22.3 "/><polyline fill="none" stroke="#5B5B5B" points="688.7,218.7 688.7,186.4 702.501,186.4 702.501,218.7 688.7,218.7 "/><polyline fill="none" stroke="#5B5B5B" points="688.7,186.4 688.7,154.2 702.501,154.2 702.501,186.4 688.7,186.4 "/><polygon fill="none" stroke="#5B5B5B" points="439.6,7 439.6,48.5 425.801,48.5 425.801,7 "/><polyline fill="none" stroke="#5B5B5B" points="425.801,16.2 405.001,16.2 405.001,7 439.6,7 439.6,16.2 "/><polyline fill="none" stroke="#5B5B5B" points="403.001,118.6 435.301,118.6 435.301,104.7 403.001,104.7 403.001,118.6 "/><polyline fill="none" stroke="#5B5B5B" points="403.001,118.6 435.301,118.6 435.301,132.4 403.001,132.4 403.001,118.6 "/><polyline fill="none" stroke="#5B5B5B" points="465.001,54.5 465.001,22.3 478.801,22.3 478.801,54.5 465.001,54.5 "/><polygon fill="none" stroke="#5B5B5B" points="394.6,71.6 393.501,71.6 393.501,72.9 394.6,72.9 "/><polygon fill="none" stroke="#5B5B5B" points="440.801,71.6 441.9,71.6 441.9,72.9 440.801,72.9 "/><polygon fill="none" stroke="#5B5B5B" points="767.1,119.6 769.4,119.6 769.4,121.9 767.1,121.9 "/><polygon fill="none" stroke="#5B5B5B" points="543.4,155.1 544.501,155.1 544.501,156.4 543.4,156.4 "/><polygon fill="none" stroke="#5B5B5B" points="515.7,155.1 514.501,155.1 514.501,156.4 515.7,156.4 "/><polygon fill="none" stroke="#5B5B5B" points="607.9,155.1 609.1,155.1 609.1,156.4 607.9,156.4 "/><polygon fill="none" stroke="#5B5B5B" points="580.301,155.1 579.1,155.1 579.1,156.4 580.301,156.4 "/><polygon fill="none" stroke="#5B5B5B" points="478.801,155.1 480.001,155.1 480.001,156.4 478.801,156.4 "/><polygon fill="none" stroke="#5B5B5B" points="465.001,155.1 463.801,155.1 463.801,156.4 465.001,156.4 "/><polygon fill="none" stroke="#5B5B5B" points="867.4,262.5 848.9,262.5 848.9,262.1 867.4,262.1 "/><polygon fill="none" stroke="#5B5B5B" points="867.4,225.6 848.9,225.6 848.9,226.1 867.4,226.1 "/><polygon fill="none" stroke="#5B5B5B" points="847.801,225.6 850.1,225.6 850.1,262.5 847.801,262.5 "/><polygon fill="none" stroke="#5B5B5B" points="1175.7,201.4 1175.7,219.9 1175.2,219.9 1175.2,201.4 "/><polygon fill="none" stroke="#5B5B5B" points="1326.501,97 1326.501,115.4 1327.001,115.4 1327.001,97 "/><polygon fill="none" stroke="#5B5B5B" points="1268.2,119.1 1286.6,119.1 1286.6,118.6 1268.2,118.6 "/><polygon fill="none" stroke="#5B5B5B" points="1308.501,114.3 1327.001,114.3 1327.001,116.8 1308.501,116.8 "/><polygon fill="none" stroke="#5B5B5B" points="1287.801,118.6 1285.501,118.6 1285.501,137.1 1287.801,137.1 "/><polygon fill="none" stroke="#5B5B5B" points="867.4,267.1 868.501,267.1 868.501,269.5 867.4,269.5 "/><polygon fill="none" stroke="#5B5B5B" points="1159.1,221 1172.9,221 1172.9,202.6 1159.1,202.6 "/><polygon fill="none" stroke="#5B5B5B" points="979.2,221 993.1,221 993.1,202.6 979.2,202.6 "/><polygon fill="none" stroke="#5B5B5B" points="799.301,221 813.2,221 813.2,202.6 799.301,202.6 "/><polygon fill="none" stroke="#5B5B5B" points="619.501,221 633.301,221 633.301,202.6 619.501,202.6 "/><polygon fill="none" stroke="#5B5B5B" points="1422.001,218.3 1435.801,218.3 1435.801,202.1 1422.001,202.1 "/><polygon fill="none" stroke="#5B5B5B" points="1351.4,221.4 1351.4,202.9 1324.7,202.6 1324.7,221 "/><polygon fill="none" stroke="#5B5B5B" points="1159.1,13 1172.9,13 1172.9,-0.8 1159.1,-0.8 "/><polygon fill="none" stroke="#5B5B5B" points="979.2,13 993.1,13 993.1,-0.8 979.2,-0.8 "/><polygon fill="none" stroke="#5B5B5B" points="799.301,13 813.2,13 813.2,-0.8 799.301,-0.8 "/><polygon fill="none" stroke="#5B5B5B" points="619.501,13 633.301,13 633.301,-0.8 619.501,-0.8 "/><polygon fill="none" stroke="#5B5B5B" points="439.6,13 453.4,13 453.4,-0.8 439.6,-0.8 "/><polygon fill="none" stroke="#5B5B5B" points="259.7,13 273.6,13 273.6,-0.8 259.7,-0.8 "/><polygon fill="none" stroke="#5B5B5B" points="1422.001,13 1435.801,13 1435.801,-0.8 1422.001,-0.8 "/><polygon fill="none" stroke="#5B5B5B" points="1159.1,423.5 1172.9,423.5 1172.9,407.9 1159.1,407.9 "/><polygon fill="none" stroke="#5B5B5B" points="979.2,423.5 993.1,423.5 993.1,407.9 979.2,407.9 "/><polygon fill="none" stroke="#5B5B5B" points="799.301,423.5 813.2,423.5 813.2,407.9 799.301,407.9 "/><polygon fill="none" stroke="#5B5B5B" points="439.6,423.5 453.4,423.5 453.4,407.9 439.6,407.9 "/><polygon fill="none" stroke="#5B5B5B" points="259.7,423.5 273.6,423.5 273.6,407.9 259.7,407.9 "/><polygon fill="none" stroke="#5B5B5B" points="79.9,423.5 93.7,423.5 93.7,409.7 79.9,409.7 "/><polygon fill="none" stroke="#5B5B5B" points="1422.001,420.7 1431.7,420.7 1431.7,409.7 1422.001,409.7 "/><polygon fill="none" stroke="#5B5B5B" points="1339.001,423.5 1352.801,423.5 1352.801,409.7 1339.001,409.7 "/><polygon fill="none" stroke="#5B5B5B" points="813.2,421 979.2,421 979.2,419.3 813.2,419.3 "/><polygon fill="none" stroke="#5B5B5B" points="1325.1,13 1339.001,13 1339.001,-0.8 1325.1,-0.8 "/><polygon fill="none" stroke="#5B5B5B" points="1342.6,364.1 1340.801,362.4 1339.1,364.1 1340.801,365.9 1342.6,364.1 "/><polygon fill="none" stroke="#5B5B5B" points="1343.1,345.3 1337.6,345.3 1343.1,359.1 "/><path fill="f00" stroke="#5B5B5B" stroke-width="0.001" d="M1337.6,345.5l0.2-0.2 M1337.801,345.8l0.5-0.5 M1337.9,346.2l0.9-0.9	 M1338.1,346.6l1.3-1.3 M1338.2,346.9l1.601-1.6 M1338.4,347.3l2-2 M1338.501,347.7l2.399-2.4 M1338.7,348.1l2.7-2.7	 M1338.801,348.4l3.1-3.1 M1339.001,348.8l3.5-3.5 M1339.1,349.2l3.9-3.9 M1339.301,349.5l3.8-3.8 M1339.4,349.9l3.7-3.7	 M1339.6,350.3l3.5-3.5 M1339.7,350.6l3.4-3.4 M1339.9,351l3.3-3.3 M1340.001,351.4l3.1-3.1 M1340.2,351.8l3-3 M1340.301,352.1	l2.8-2.8 M1340.4,352.5l2.7-2.7 M1340.6,352.9l2.5-2.5 M1340.7,353.2l2.4-2.4 M1340.9,353.6l2.2-2.2 M1341.001,354l2.1-2.1	 M1341.2,354.3l1.9-1.9 M1341.301,354.7l1.8-1.8 M1341.501,355.1l1.6-1.6 M1341.6,355.5l1.5-1.5 M1341.801,355.8l1.3-1.3	 M1341.9,356.2l1.2-1.2 M1342.1,356.6l1-1 M1342.2,356.9l0.9-0.9 M1342.4,357.3l0.7-0.7 M1342.501,357.7l0.6-0.6 M1342.7,358	l0.4-0.4 M1342.801,358.4l0.3-0.3 M1343.001,358.8l0.1-0.1"/><polygon fill="none" stroke="#5B5B5B" points="1343.1,359.1 1337.6,359.1 1337.6,345.3 1343.1,345.3 "/><polygon fill="none" stroke="#5B5B5B" points="978.1,205.1 976.4,203.3 974.6,205.1 976.4,206.8 978.1,205.1 "/><polygon fill="none" stroke="#5B5B5B" points="993.1,202.6 993.1,197 979.2,202.6 "/><path fill="f1a" stroke="#5B5B5B" stroke-width="0.001" d="M992.9,197.1l0.2,0.2 M992.501,197.3l0.5,0.5 M992.2,197.4l0.9,0.9	 M991.801,197.6l1.3,1.3 M991.4,197.7l1.601,1.6 M991.001,197.8l2,2 M990.7,198l2.4,2.4 M990.301,198.1l2.7,2.7 M989.9,198.3	l3.101,3.1 M989.6,198.4l3.5,3.5 M989.2,198.6l3.9,3.9 M988.801,198.7l3.8,3.8 M988.501,198.9l3.699,3.7 M988.1,199l3.5,3.5	 M987.7,199.2l3.4,3.4 M987.301,199.3l3.3,3.3 M987.001,199.5l3.1,3.1 M986.6,199.6l3,3 M986.2,199.8l2.801,2.8 M985.9,199.9	l2.7,2.7 M985.501,200.1l2.5,2.5 M985.1,200.2l2.4,2.4 M984.801,200.4l2.2,2.2 M984.4,200.5l2.101,2.1 M984.001,200.7l1.899,1.9	 M983.7,200.8l1.801,1.8 M983.301,201l1.6,1.6 M982.9,201.1l1.5,1.5 M982.501,201.3l1.3,1.3 M982.2,201.4l1.2,1.2 M981.801,201.5	l1,1 M981.4,201.7l0.9,0.9 M981.1,201.8l0.7,0.7 M980.7,202l0.601,0.6 M980.301,202.1l0.399,0.4 M980.001,202.3l0.3,0.3	 M979.6,202.4l0.1,0.1"/><polygon fill="none" stroke="#5B5B5B" points="979.2,202.6 979.2,197 993.1,197 993.1,202.6 "/><polygon fill="none" stroke="#5B5B5B" points="1323.801,10.1 1322.7,8.9 1321.501,10.1 1322.7,11.2 1323.801,10.1 "/><polygon fill="none" stroke="#5B5B5B" points="1327.4,14.6 1326.6,13.7 1325.7,14.6 1326.6,15.4 1327.4,14.6 "/><polygon fill="none" stroke="#5B5B5B" points="97.3,413.6 96.2,412.4 95,413.6 96.2,414.7 97.3,413.6 "/><polygon fill="none" stroke="#5B5B5B" points="1370.4,176.3 1369.2,175.1 1368.1,176.3 1369.2,177.4 1370.4,176.3 "/><polygon fill="none" stroke="#5B5B5B" points="1424.9,123.9 1423.7,122.8 1422.6,123.9 1423.7,125.1 1424.9,123.9 "/><polygon fill="none" stroke="#5B5B5B" points="1420.801,10.1 1419.6,9 1418.501,10.1 1419.6,11.3 1420.801,10.1 "/><polygon fill="none" stroke="#5B5B5B" points="1342.301,10 1341.1,8.9 1340.001,10 1341.1,11.2 1342.301,10 "/><polygon fill="none" stroke="#5B5B5B" stroke-width="0.0553" points="1412.2,65.8 1411.301,66.7 1412.2,67.6 1413.1,66.7 "/><polyline fill="none" stroke="#5B5B5B" points="1411.7,64.7 1410.501,65.8 1410.501,65.8 "/><polyline fill="none" stroke="#5B5B5B" points="1410.501,67.6 1411.6,68.7 1411.7,68.7 "/><polygon fill="none" stroke="#5B5B5B" stroke-width="0.0553" points="1412.2,90.3 1411.301,91.2 1412.2,92.1 1413.1,91.2 "/><polyline fill="none" stroke="#5B5B5B" points="1411.7,89.2 1410.501,90.2 1410.501,90.3 "/><polyline fill="none" stroke="#5B5B5B" points="1410.501,92.1 1411.6,93.2 1411.7,93.2 "/><polygon fill="none" stroke="#5B5B5B" stroke-width="0.0553" points="1412.2,114.4 1411.301,115.3 1412.2,116.2 1413.1,115.3 "/><polyline fill="none" stroke="#5B5B5B" points="1411.7,113.3 1410.501,114.4 1410.501,114.4 "/><polyline fill="none" stroke="#5B5B5B" points="1410.501,116.2 1411.6,117.3 1411.7,117.3 "/><polygon fill="none" stroke="#5B5B5B" stroke-width="0.0553" points="1412.2,17.4 1411.301,18.3 1412.2,19.2 1413.1,18.3 "/><polyline fill="none" stroke="#5B5B5B" points="1411.7,16.3 1410.501,17.4 1410.501,17.4 "/><polyline fill="none" stroke="#5B5B5B" points="1410.501,19.2 1411.6,20.3 1411.7,20.3 "/><polygon fill="none" stroke="#5B5B5B" stroke-width="0.0553" points="1348.7,17.4 1349.6,18.3 1348.7,19.2 1347.801,18.3 "/><polyline fill="none" stroke="#5B5B5B" points="1349.2,16.3 1349.301,16.3 1350.4,17.4 "/><polyline fill="none" stroke="#5B5B5B" points="1350.4,19.2 1350.4,19.3 1349.2,20.3 "/><polygon fill="none" stroke="#5B5B5B" stroke-width="0.0553" points="1348.7,41.7 1349.6,42.6 1348.7,43.5 1347.801,42.6 "/><polyline fill="none" stroke="#5B5B5B" points="1349.2,40.6 1349.301,40.6 1350.4,41.7 "/><polyline fill="none" stroke="#5B5B5B" points="1350.4,43.5 1350.4,43.5 1349.2,44.6 "/><polygon fill="none" stroke="#5B5B5B" stroke-width="0.0553" points="1414.501,141.9 1413.6,142.8 1414.501,143.7 1415.4,142.8 "/><polyline fill="none" stroke="#5B5B5B" points="1414.001,140.8 1412.801,141.9 1412.801,141.9 "/><polyline fill="none" stroke="#5B5B5B" points="1412.801,143.7 1414.001,144.8 1414.001,144.8 "/><polygon fill="none" stroke="#5B5B5B" stroke-width="0.0553" points="1414.501,168.8 1413.6,169.7 1414.501,170.6 1415.4,169.7 "/><polyline fill="none" stroke="#5B5B5B" points="1414.001,167.7 1412.801,168.8 1412.801,168.8 "/><polyline fill="none" stroke="#5B5B5B" points="1412.801,170.6 1414.001,171.7 1414.001,171.7 "/><polygon fill="none" stroke="#5B5B5B" stroke-width="0.0553" points="1414.501,194.7 1413.6,195.6 1414.501,196.5 1415.4,195.6 "/><polyline fill="none" stroke="#5B5B5B" points="1414.001,193.6 1412.801,194.7 1412.801,194.7 "/><polyline fill="none" stroke="#5B5B5B" points="1412.801,196.5 1414.001,197.6 1414.001,197.6 "/><polygon fill="none" stroke="#5B5B5B" points="1414.1,243.8 1414.001,243.6 1413.801,243.8 1414.001,243.9 1414.1,243.8 "/><polygon fill="none" stroke="#5B5B5B" points="1414.4,243.8 1414.001,243.3 1413.6,243.8 1414.001,244.2 1414.4,243.8 "/><polyline fill="none" stroke="#5B5B5B" points="1414.6,242 1413.7,241.7 1413.4,242 "/><polyline fill="none" stroke="#5B5B5B" points="1414.301,242 1413.7,242 1413.7,242 "/><polygon fill="none" stroke="#5B5B5B" points="1415.501,238 1416.7,239.8 1417.501,240.8 1418.2,240.8 1418.2,240.8 1418.2,240.6 	1418.501,240.4 1418.9,240.4 1419.2,240.6 1419.2,245.5 1408.801,245.5 1408.801,240.6 1409.001,240.4 1409.501,240.4 1409.7,240.6 	1409.7,240.8 1410.4,240.9 1410.4,240.8 1411.2,239.8 1412.4,238 1412.6,237.9 1414.001,237.9 1415.301,237.9 "/><polyline fill="none" stroke="#5B5B5B" points="1416.9,242 1415.4,239.4 1415.2,238.5 1415.001,238.3 1414.001,238.3 1412.9,238.3 	1412.7,238.5 1412.501,239.4 1411.1,242 "/><polygon fill="none" stroke="#5B5B5B" points="1388.9,243.8 1388.801,243.6 1388.6,243.8 1388.801,243.9 1388.9,243.8 "/><polygon fill="none" stroke="#5B5B5B" points="1389.2,243.8 1388.801,243.3 1388.301,243.8 1388.801,244.2 1389.2,243.8 "/><polyline fill="none" stroke="#5B5B5B" points="1389.301,242 1388.501,241.7 1388.2,242 "/><polyline fill="none" stroke="#5B5B5B" points="1389.1,242 1388.501,242 1388.501,242 "/><polygon fill="none" stroke="#5B5B5B" points="1390.301,238 1391.501,239.8 1392.301,240.8 1393.001,240.8 1393.001,240.8 	1393.001,240.6 1393.301,240.4 1393.7,240.4 1394.001,240.6 1394.001,245.5 1383.6,245.5 1383.6,240.6 1383.801,240.4 	1384.301,240.4 1384.501,240.6 1384.501,240.8 1385.1,240.9 1385.2,240.8 1386.001,239.8 1387.2,238 1387.4,237.9 1388.801,237.9 	1390.1,237.9 "/><polyline fill="none" stroke="#5B5B5B" points="1391.7,242 1390.2,239.4 1390.001,238.5 1389.801,238.3 1388.801,238.3 	1387.7,238.3 1387.501,238.5 1387.301,239.4 1385.9,242 "/><polyline fill="none" stroke="#5B5B5B" points="1376.6,245.5 1376.6,236.2 1375.7,236.2 1375.7,245.5 "/><polyline fill="none" stroke="#5B5B5B" points="1401.801,245.5 1401.801,236.2 1400.9,236.2 1400.9,245.5 "/><polygon fill="none" stroke="#5B5B5B" points="1190.2,269.5 1189.2,269.5 1189.2,287.2 1190.2,287.2 "/><polygon fill="none" stroke="#5B5B5B" points="1189.001,284.5 1189.001,285.3 1188.9,285.3 1188.9,284.5 "/><polygon fill="none" stroke="#5B5B5B" points="1189.2,284.3 1189.2,285.6 1189.001,285.6 1189.001,284.3 "/><polyline fill="none" stroke="#5B5B5B" points="1188.9,285.2 1187.6,285.2 1187.501,285.1 1187.501,284.7 1187.6,284.7 	1188.9,284.7 "/><polygon fill="none" stroke="#5B5B5B" points="1190.4,284.5 1190.4,285.3 1190.501,285.3 1190.501,284.5 "/><polygon fill="none" stroke="#5B5B5B" points="1190.2,284.3 1190.2,285.6 1190.4,285.6 1190.4,284.3 "/><polyline fill="none" stroke="#5B5B5B" points="1190.501,285.2 1191.801,285.2 1191.9,285.1 1191.9,284.7 1191.801,284.7 	1190.501,284.7 "/><polygon fill="none" stroke="#5B5B5B" points="1154.7,269.5 1155.7,269.5 1155.7,287.2 1154.7,287.2 "/><polygon fill="none" stroke="#5B5B5B" points="1155.9,284.5 1155.9,285.3 1156.1,285.3 1156.1,284.5 "/><polygon fill="none" stroke="#5B5B5B" points="1155.7,284.3 1155.7,285.6 1155.9,285.6 1155.9,284.3 "/><polyline fill="none" stroke="#5B5B5B" points="1156.1,285.2 1157.4,285.2 1157.4,285.1 1157.4,284.7 1157.4,284.7 1156.1,284.7 "/><polygon fill="none" stroke="#5B5B5B" points="1154.501,284.5 1154.501,285.3 1154.4,285.3 1154.4,284.5 "/><polygon fill="none" stroke="#5B5B5B" points="1154.7,284.3 1154.7,285.6 1154.501,285.6 1154.501,284.3 "/><polyline fill="none" stroke="#5B5B5B" points="1154.4,285.2 1153.1,285.2 1153.001,285.1 1153.001,284.7 1153.1,284.7 	1154.4,284.7 "/><path fill="f1a" stroke="#5B5B5B" d="M850.1,269.5h-145.3 M702.501,267.1v152.2 M704.801,269.5v149.8 M704.801,267.1h143	 M633.301,221v186.9 M631.001,221v186.9 M704.801,267.1h-2.3 M702.501,267.1H652.9 M702.501,269.5H652.9 M634.501,269.5h-1.2	 M633.301,267.1h1.2 M634.501,267.1v2.4 M652.9,267.1v2.4 M619.501,423.5h13.8v-15.6h-13.8V423.5z M633.301,421h166v-1.7h-166V421z	 M634.501,269.5h0.699v-1.1h0.2v-1.3h-0.899V269.5z M652.9,269.5h-0.7v-1.1h-0.199v-1.3h0.899V269.5z M634.501,269.5H652.9	 M634.501,267.1H652.9 M635.2,269.5h1v17h-1V269.5z M652.2,269.5l-17,17"/><polygon fill="none" stroke="#5B5B5B" points="905.4,269.5 904.7,269.5 904.7,268.4 904.501,268.4 904.501,267.1 905.4,267.1 "/><polygon fill="none" stroke="#5B5B5B" points="868.501,269.5 869.2,269.5 869.2,268.4 869.501,268.4 869.501,267.1 868.501,267.1 	"/><polygon fill="none" stroke="#5B5B5B" points="904.7,269.5 903.7,269.5 903.7,287.2 904.7,287.2 "/><polygon fill="none" stroke="#5B5B5B" points="903.501,284.5 903.501,285.3 903.4,285.3 903.4,284.5 "/><polygon fill="none" stroke="#5B5B5B" points="903.7,284.3 903.7,285.6 903.501,285.6 903.501,284.3 "/><polyline fill="none" stroke="#5B5B5B" points="903.4,285.2 902.1,285.2 902.001,285.1 902.001,284.7 902.1,284.7 903.4,284.7 "/><polygon fill="none" stroke="#5B5B5B" points="904.9,284.5 904.9,285.3 905.1,285.3 905.1,284.5 "/><polygon fill="none" stroke="#5B5B5B" points="904.7,284.3 904.7,285.6 904.9,285.6 904.9,284.3 "/><polyline fill="none" stroke="#5B5B5B" points="905.1,285.2 906.4,285.2 906.4,285.1 906.4,284.7 906.4,284.7 905.1,284.7 "/><polygon fill="none" stroke="#5B5B5B" points="869.2,269.5 870.301,269.5 870.301,287.2 869.2,287.2 "/><polygon fill="none" stroke="#5B5B5B" points="870.501,284.5 870.501,285.3 870.6,285.3 870.6,284.5 "/><polygon fill="none" stroke="#5B5B5B" points="870.301,284.3 870.301,285.6 870.501,285.6 870.501,284.3 "/><polyline fill="none" stroke="#5B5B5B" points="870.6,285.2 871.9,285.2 872.001,285.1 872.001,284.7 871.9,284.7 870.6,284.7 "/><polygon fill="none" stroke="#5B5B5B" points="869.001,284.5 869.001,285.3 868.9,285.3 868.9,284.5 "/><polygon fill="none" stroke="#5B5B5B" points="869.2,284.3 869.2,285.6 869.001,285.6 869.001,284.3 "/><polyline fill="none" stroke="#5B5B5B" points="868.9,285.2 867.6,285.2 867.501,285.1 867.501,284.7 867.6,284.7 868.9,284.7 "/><polygon fill="none" stroke="#5B5B5B" points="798.2,218.7 797.501,218.7 797.501,219.8 797.301,219.8 797.301,221 798.2,221 "/><polygon fill="none" stroke="#5B5B5B" points="779.7,218.7 780.4,218.7 780.4,219.8 780.7,219.8 780.7,221 779.7,221 "/><polygon fill="none" stroke="#5B5B5B" points="797.501,218.7 796.501,218.7 796.501,201.7 797.501,201.7 "/><polygon fill="none" stroke="#5B5B5B" points="1386.2,367.2 1388.501,367.2 1388.501,289.7 1386.2,289.7 "/><polygon fill="none" stroke="#5B5B5B" points="1385.1,368.4 1389.7,368.4 1389.7,288.6 1385.1,288.6 "/><polyline fill="none" stroke="#5B5B5B" points="1426.1,286.5 1410.6,291.9 1411.2,299 1403.4,287 1404.1,294.1 1388.501,299.4 "/><polygon fill="#808080" stroke="#5B5B5B" points="1407.9,286.5 1406.801,279.6 1409.1,279.6 "/><polyline fill="none" stroke="#5B5B5B" points="1407.9,279.6 1407.9,270.4 1366.9,270.4 1366.9,373.7 "/><polygon fill="#808080" stroke="#5B5B5B" points="1407.9,299.4 1409.1,306.4 1406.801,306.4 "/><path fill="f1a" stroke="#5B5B5B" d="M13.9,416.6h158.2 M13.9,422.1h163.7 M1,423.5h12.9v-13.8H1V423.5z M1,409.7V3.698	 M73.03,3.698H1"/><path fill="f1a" stroke="#5B5B5B" d="M132.9,202.6v214 M132.9,202.6V221 M166.3,232.6v13.8h60v-13.8H166.3 M273.6,202.6H132.9"/></svg>